# xmcd
#
# Track frame offsets:
# 150
# 18351
# 39470
# 82508
# 95753
# 113045
# 126251
# 144276
# 182054
#
# Disc length: 2579 seconds
#
# Revision: 1
# Processed by: cddbd v1.5.1PL2 Copyright (c) Steve Scherf et al.
# Submitted via: CedeCatalogueitor 2.6.0.6 http://personales.ya.com/cdcatalogueitor
#
DISCID=680a1109
DTITLE=John Mayall - Pop History Cd 2
DYEAR=1900
DGENRE=
TTITLE0=Took The Car
TTITLE1=Saw Mill Gulch Road
TTITLE2=California
TTITLE3=Many Miles Apart
TTITLE4=Where Did My Legs Go
TTITLE5=People Cling Together
TTITLE6=You Must Be Crazy
TTITLE7=Thoughts About Roxanne
TTITLE8=Thinking Of My Woman
EXTD=
EXTT0=
EXTT1=
EXTT2=
EXTT3=
EXTT4=
EXTT5=
EXTT6=
EXTT7=
EXTT8=
PLAYORDER=
